<svg width="45" height="45" viewBox="0 0 45 45" fill="none" xmlns="http://www.w3.org/2000/svg">
<path d="M14.8434 18.6119L18.6517 14.8095C18.8414 14.62 19.0986 14.5135 19.3669 14.5131H24.7499C24.8828 14.5131 25.0143 14.5393 25.137 14.5902C25.2598 14.641 25.3713 14.7155 25.4651 14.8095L29.5703 18.9083L35.9355 16.2757L28.1018 8.45408C28.0079 8.36014 27.8964 8.28566 27.7737 8.23478C27.651 8.18398 27.5195 8.15779 27.3866 8.15771H16.7326C16.4644 8.15807 16.2071 8.26463 16.0175 8.45408L8.48051 15.9793C8.29078 16.1688 8.18407 16.4255 8.18372 16.6935V21.0886H14.5489V19.3272C14.5483 19.0593 14.6542 18.802 14.8434 18.6119Z" fill="#FC012A"/>
<path d="M8.48051 28.048L16.0175 35.5793C16.2071 35.7687 16.4644 35.8753 16.7326 35.8756H27.3914C27.5242 35.8755 27.6558 35.8493 27.7785 35.7985C27.9012 35.7477 28.0127 35.6732 28.1065 35.5793L35.9403 27.7576L29.5751 25.125L25.4699 29.2239C25.376 29.3178 25.2646 29.3923 25.1419 29.4432C25.0191 29.494 24.8875 29.5202 24.7547 29.5202H19.3717C19.1034 29.5199 18.8462 29.4133 18.6565 29.2239L14.8457 25.4154C14.656 25.226 14.5492 24.9692 14.5489 24.7013V22.9375H8.18372V27.3328C8.18372 27.6011 8.29049 27.8583 8.48051 28.048Z" fill="#FC012A"/>
<path d="M28.1487 37.7215H15.9595C15.6913 37.7207 15.4343 37.6142 15.2443 37.4252L6.62384 28.8121C6.43411 28.6227 6.3274 28.3659 6.32705 28.098V22.9375H0V30.7128C0.000861096 30.9805 0.107494 31.2371 0.296791 31.4268L12.6219 43.733C12.8117 43.9221 13.0689 44.0287 13.3371 44.0293H30.7687C31.0368 44.0284 31.2939 43.9219 31.4839 43.733L44.1082 31.1328L37.7823 28.5145L28.8651 37.418C28.7716 37.5133 28.6602 37.5891 28.5372 37.6412C28.4143 37.6932 28.2823 37.7206 28.1487 37.7215Z" fill="#FC012A"/>
<path d="M6.62269 15.2106L15.2419 6.60461C15.4319 6.41568 15.6889 6.30912 15.9571 6.30826H28.1475C28.4158 6.30861 28.673 6.41517 28.8627 6.60461L37.7799 15.5081L44.1058 12.8898L31.4851 0.288548C31.2951 0.0995378 31.0381 -0.0069514 30.7699 -0.0078125H13.3371C13.0689 -0.00723844 12.8117 0.0993225 12.6219 0.288548L0.296791 12.5946C0.107494 12.7843 0.000861096 13.0409 0 13.3087V21.0839H6.32468V15.9271C6.32525 15.6582 6.43239 15.4006 6.62269 15.2106Z" fill="#FC012A"/>
</svg>
